<svg xmlns="http://www.w3.org/2000/svg" width="375.76" height="800.0" viewBox="-24.8 -52.8 49.6 105.6"><rect x="-24.8" y="-52.8" width="49.6" height="105.6" fill="white"/><polygon points="-14,14 14,14 14,10 -14,10" fill="#1f77b4" fill-opacity="0.6" stroke="#1f77b4" stroke-width="0.2112"/><polygon points="-14,-10 14,-10 14,-14 -14,-14" fill="#1f77b4" fill-opacity="0.6" stroke="#1f77b4" stroke-width="0.2112"/><polygon points="-14,10 -10,10 -10,1 -14,1" fill="#1f77b4" fill-opacity="0.6" stroke="#1f77b4" stroke-width="0.2112"/><polygon points="-14,-1 -10,-1 -10,-10 -14,-10" fill="#1f77b4" fill-opacity="0.6" stroke="#1f77b4" stroke-width="0.2112"/><polygon points="10,10 14,10 14,1 10,1" fill="#1f77b4" fill-opacity="0.6" stroke="#1f77b4" stroke-width="0.2112"/><polygon points="10,-1 14,-1 14,-10 10,-10" fill="#1f77b4" fill-opacity="0.6" stroke="#1f77b4" stroke-width="0.2112"/><polygon points="-13,1 -11,1 -11,-1 -13,-1" fill="#d62728" fill-opacity="0.6" stroke="#d62728" stroke-width="0.2112"/><polygon points="11,1 13,1 13,-1 11,-1" fill="#d62728" fill-opacity="0.6" stroke="#d62728" stroke-width="0.2112"/><polygon points="-2,-14 2,-14 2,-18 -2,-18" fill="#1f77b4" fill-opacity="0.6" stroke="#1f77b4" stroke-width="0.2112"/><polygon points="-20,-18 20,-18 20,-48 -20,-48" fill="#1f77b4" fill-opacity="0.6" stroke="#1f77b4" stroke-width="0.2112"/><polygon points="-2,18 2,18 2,14 -2,14" fill="#1f77b4" fill-opacity="0.6" stroke="#1f77b4" stroke-width="0.2112"/><polygon points="-20,48 20,48 20,18 -20,18" fill="#1f77b4" fill-opacity="0.6" stroke="#1f77b4" stroke-width="0.2112"/></svg>