<svg xmlns="http://www.w3.org/2000/svg" width="702.49" height="800.0" viewBox="-13.7426 -13.7426 265.485 302.336"><rect x="-13.7426" y="-13.7426" width="265.485" height="302.336" fill="white"/><polygon points="0,274.851 238,274.851 238,249.851 0,249.851" fill="#1f77b4" fill-opacity="0.6" stroke="#1f77b4" stroke-width="0.6047"/><polygon points="0,25 238,25 238,0 0,0" fill="#1f77b4" fill-opacity="0.6" stroke="#1f77b4" stroke-width="0.6047"/><polygon points="0,249.851 4,249.851 4,27 0,27" fill="#1f77b4" fill-opacity="0.6" stroke="#1f77b4" stroke-width="0.6047"/><polygon points="6,247.851 10,247.851 10,25 6,25" fill="#1f77b4" fill-opacity="0.6" stroke="#1f77b4" stroke-width="0.6047"/><polygon points="12,249.851 16,249.851 16,27 12,27" fill="#1f77b4" fill-opacity="0.6" stroke="#1f77b4" stroke-width="0.6047"/><polygon points="18,247.851 22,247.851 22,25 18,25" fill="#1f77b4" fill-opacity="0.6" stroke="#1f77b4" stroke-width="0.6047"/><polygon points="24,249.851 28,249.851 28,27 24,27" fill="#1f77b4" fill-opacity="0.6" stroke="#1f77b4" stroke-width="0.6047"/><polygon points="30,247.851 34,247.851 34,25 30,25" fill="#1f77b4" fill-opacity="0.6" stroke="#1f77b4" stroke-width="0.6047"/><polygon points="36,249.851 40,249.851 40,27 36,27" fill="#1f77b4" fill-opacity="0.6" stroke="#1f77b4" stroke-width="0.6047"/><polygon points="42,247.851 46,247.851 46,25 42,25" fill="#1f77b4" fill-opacity="0.6" stroke="#1f77b4" stroke-width="0.6047"/><polygon points="48,249.851 52,249.851 52,27 48,27" fill="#1f77b4" fill-opacity="0.6" stroke="#1f77b4" stroke-width="0.6047"/><polygon points="54,247.851 58,247.851 58,25 54,25" fill="#1f77b4" fill-opacity="0.6" stroke="#1f77b4" stroke-width="0.6047"/><polygon points="60,249.851 64,249.851 64,27 60,27" fill="#1f77b4" fill-opacity="0.6" stroke="#1f77b4" stroke-width="0.6047"/><polygon points="66,247.851 70,247.851 70,25 66,25" fill="#1f77b4" fill-opacity="0.6" stroke="#1f77b4" stroke-width="0.6047"/><polygon points="72,249.851 76,249.851 76,27 72,27" fill="#1f77b4" fill-opacity="0.6" stroke="#1f77b4" stroke-width="0.6047"/><polygon points="78,247.851 82,247.851 82,25 78,25" fill="#1f77b4" fill-opacity="0.6" stroke="#1f77b4" stroke-width="0.6047"/><polygon points="84,249.851 88,249.851 88,27 84,27" fill="#1f77b4" fill-opacity="0.6" stroke="#1f77b4" stroke-width="0.6047"/><polygon points="90,247.851 94,247.851 94,25 90,25" fill="#1f77b4" fill-opacity="0.6" stroke="#1f77b4" stroke-width="0.6047"/><polygon points="96,249.851 100,249.851 100,27 96,27" fill="#1f77b4" fill-opacity="0.6" stroke="#1f77b4" stroke-width="0.6047"/><polygon points="102,247.851 106,247.851 106,25 102,25" fill="#1f77b4" fill-opacity="0.6" stroke="#1f77b4" stroke-width="0.6047"/><polygon points="108,249.851 112,249.851 112,27 108,27" fill="#1f77b4" fill-opacity="0.6" stroke="#1f77b4" stroke-width="0.6047"/><polygon points="114,247.851 118,247.851 118,25 114,25" fill="#1f77b4" fill-opacity="0.6" stroke="#1f77b4" stroke-width="0.6047"/><polygon points="120,249.851 124,249.851 124,27 120,27" fill="#1f77b4" fill-opacity="0.6" stroke="#1f77b4" stroke-width="0.6047"/><polygon points="126,247.851 130,247.851 130,25 126,25" fill="#1f77b4" fill-opacity="0.6" stroke="#1f77b4" stroke-width="0.6047"/><polygon points="132,249.851 136,249.851 136,27 132,27" fill="#1f77b4" fill-opacity="0.6" stroke="#1f77b4" stroke-width="0.6047"/><polygon points="138,247.851 142,247.851 142,25 138,25" fill="#1f77b4" fill-opacity="0.6" stroke="#1f77b4" stroke-width="0.6047"/><polygon points="144,249.851 148,249.851 148,27 144,27" fill="#1f77b4" fill-opacity="0.6" stroke="#1f77b4" stroke-width="0.6047"/><polygon points="150,247.851 154,247.851 154,25 150,25" fill="#1f77b4" fill-opacity="0.6" stroke="#1f77b4" stroke-width="0.6047"/><polygon points="156,249.851 160,249.851 160,27 156,27" fill="#1f77b4" fill-opacity="0.6" stroke="#1f77b4" stroke-width="0.6047"/><polygon points="162,247.851 166,247.851 166,25 162,25" fill="#1f77b4" fill-opacity="0.6" stroke="#1f77b4" stroke-width="0.6047"/><polygon points="168,249.851 172,249.851 172,27 168,27" fill="#1f77b4" fill-opacity="0.6" stroke="#1f77b4" stroke-width="0.6047"/><polygon points="174,247.851 178,247.851 178,25 174,25" fill="#1f77b4" fill-opacity="0.6" stroke="#1f77b4" stroke-width="0.6047"/><polygon points="180,249.851 184,249.851 184,27 180,27" fill="#1f77b4" fill-opacity="0.6" stroke="#1f77b4" stroke-width="0.6047"/><polygon points="186,247.851 190,247.851 190,25 186,25" fill="#1f77b4" fill-opacity="0.6" stroke="#1f77b4" stroke-width="0.6047"/><polygon points="192,249.851 196,249.851 196,27 192,27" fill="#1f77b4" fill-opacity="0.6" stroke="#1f77b4" stroke-width="0.6047"/><polygon points="198,247.851 202,247.851 202,25 198,25" fill="#1f77b4" fill-opacity="0.6" stroke="#1f77b4" stroke-width="0.6047"/><polygon points="204,249.851 208,249.851 208,27 204,27" fill="#1f77b4" fill-opacity="0.6" stroke="#1f77b4" stroke-width="0.6047"/><polygon points="210,247.851 214,247.851 214,25 210,25" fill="#1f77b4" fill-opacity="0.6" stroke="#1f77b4" stroke-width="0.6047"/><polygon points="216,249.851 220,249.851 220,27 216,27" fill="#1f77b4" fill-opacity="0.6" stroke="#1f77b4" stroke-width="0.6047"/><polygon points="222,247.851 226,247.851 226,25 222,25" fill="#1f77b4" fill-opacity="0.6" stroke="#1f77b4" stroke-width="0.6047"/><polygon points="228,249.851 232,249.851 232,27 228,27" fill="#1f77b4" fill-opacity="0.6" stroke="#1f77b4" stroke-width="0.6047"/><polygon points="234,247.851 238,247.851 238,25 234,25" fill="#1f77b4" fill-opacity="0.6" stroke="#1f77b4" stroke-width="0.6047"/></svg>