<svg xmlns="http://www.w3.org/2000/svg" width="800.0" height="800.0" viewBox="-7.5 -7.5 165 165"><rect x="-7.5" y="-7.5" width="165" height="165" fill="white"/><polygon points="0,150 150,150 150,142 0,142" fill="#1f77b4" fill-opacity="0.6" stroke="#1f77b4" stroke-width="0.33"/><polygon points="142,150 150,150 150,0 142,0" fill="#1f77b4" fill-opacity="0.6" stroke="#1f77b4" stroke-width="0.33"/><polygon points="0,8 150,8 150,0 0,0" fill="#1f77b4" fill-opacity="0.6" stroke="#1f77b4" stroke-width="0.33"/><polygon points="0,136 8,136 8,0 0,0" fill="#1f77b4" fill-opacity="0.6" stroke="#1f77b4" stroke-width="0.33"/><polygon points="0,136 22,136 22,128 0,128" fill="#1f77b4" fill-opacity="0.6" stroke="#1f77b4" stroke-width="0.33"/><polygon points="14,136 136,136 136,128 14,128" fill="#1f77b4" fill-opacity="0.6" stroke="#1f77b4" stroke-width="0.33"/><polygon points="128,136 136,136 136,14 128,14" fill="#1f77b4" fill-opacity="0.6" stroke="#1f77b4" stroke-width="0.33"/><polygon points="14,22 136,22 136,14 14,14" fill="#1f77b4" fill-opacity="0.6" stroke="#1f77b4" stroke-width="0.33"/><polygon points="14,122 22,122 22,14 14,14" fill="#1f77b4" fill-opacity="0.6" stroke="#1f77b4" stroke-width="0.33"/><polygon points="14,122 36,122 36,114 14,114" fill="#1f77b4" fill-opacity="0.6" stroke="#1f77b4" stroke-width="0.33"/><polygon points="28,122 122,122 122,114 28,114" fill="#1f77b4" fill-opacity="0.6" stroke="#1f77b4" stroke-width="0.33"/><polygon points="114,122 122,122 122,28 114,28" fill="#1f77b4" fill-opacity="0.6" stroke="#1f77b4" stroke-width="0.33"/><polygon points="28,36 122,36 122,28 28,28" fill="#1f77b4" fill-opacity="0.6" stroke="#1f77b4" stroke-width="0.33"/><polygon points="28,108 36,108 36,28 28,28" fill="#1f77b4" fill-opacity="0.6" stroke="#1f77b4" stroke-width="0.33"/><polygon points="28,108 50,108 50,100 28,100" fill="#1f77b4" fill-opacity="0.6" stroke="#1f77b4" stroke-width="0.33"/><polygon points="42,108 108,108 108,100 42,100" fill="#1f77b4" fill-opacity="0.6" stroke="#1f77b4" stroke-width="0.33"/><polygon points="100,108 108,108 108,42 100,42" fill="#1f77b4" fill-opacity="0.6" stroke="#1f77b4" stroke-width="0.33"/><polygon points="42,50 108,50 108,42 42,42" fill="#1f77b4" fill-opacity="0.6" stroke="#1f77b4" stroke-width="0.33"/></svg>