<svg xmlns="http://www.w3.org/2000/svg" width="145.62" height="800.0" viewBox="-499.423 -249.423 998.846 5487.31"><rect x="-499.423" y="-249.423" width="998.846" height="5487.31" fill="white"/><polygon points="-5,4988.47 5,4988.47 5,70 -5,70" fill="#1f77b4" fill-opacity="0.6" stroke="#1f77b4" stroke-width="10.9746"/><polygon points="-61,4988.47 -11,4988.47 -11,70 -61,70" fill="#1f77b4" fill-opacity="0.6" stroke="#1f77b4" stroke-width="10.9746"/><polygon points="11,4988.47 61,4988.47 61,70 11,70" fill="#1f77b4" fill-opacity="0.6" stroke="#1f77b4" stroke-width="10.9746"/><polygon points="-11,4988.47 11,4988.47 11,4978.47 -11,4978.47" fill="#1f77b4" fill-opacity="0.6" stroke="#1f77b4" stroke-width="10.9746"/><polygon points="-250,66 250,66 250,56 -250,56" fill="#1f77b4" fill-opacity="0.6" stroke="#1f77b4" stroke-width="10.9746"/><polygon points="-250,50 250,50 250,0 -250,0" fill="#1f77b4" fill-opacity="0.6" stroke="#1f77b4" stroke-width="10.9746"/><polygon points="-250,122 -11,122 -11,72 -250,72" fill="#1f77b4" fill-opacity="0.6" stroke="#1f77b4" stroke-width="10.9746"/><polygon points="11,122 250,122 250,72 11,72" fill="#1f77b4" fill-opacity="0.6" stroke="#1f77b4" stroke-width="10.9746"/></svg>