<svg xmlns="http://www.w3.org/2000/svg" width="800.0" height="800.0" viewBox="-6.4584 -6.4584 142.085 142.085"><rect x="-6.4584" y="-6.4584" width="142.085" height="142.085" fill="white"/><polygon points="0,129.168 129.168,129.168 129.168,125.168 0,125.168" fill="#1f77b4" fill-opacity="0.6" stroke="#1f77b4" stroke-width="0.2842"/><polygon points="125.168,129.168 129.168,129.168 129.168,0 125.168,0" fill="#1f77b4" fill-opacity="0.6" stroke="#1f77b4" stroke-width="0.2842"/><polygon points="4,4 125.168,4 125.168,0 4,0" fill="#1f77b4" fill-opacity="0.6" stroke="#1f77b4" stroke-width="0.2842"/><polygon points="0,119.168 4,119.168 4,4 0,4" fill="#1f77b4" fill-opacity="0.6" stroke="#1f77b4" stroke-width="0.2842"/><polygon points="0,123.168 10,123.168 10,119.168 0,119.168" fill="#1f77b4" fill-opacity="0.6" stroke="#1f77b4" stroke-width="0.2842"/><polygon points="6,123.168 123.168,123.168 123.168,119.168 6,119.168" fill="#1f77b4" fill-opacity="0.6" stroke="#1f77b4" stroke-width="0.2842"/><polygon points="119.168,123.168 123.168,123.168 123.168,6 119.168,6" fill="#1f77b4" fill-opacity="0.6" stroke="#1f77b4" stroke-width="0.2842"/><polygon points="10,10 119.168,10 119.168,6 10,6" fill="#1f77b4" fill-opacity="0.6" stroke="#1f77b4" stroke-width="0.2842"/><polygon points="6,113.168 10,113.168 10,10 6,10" fill="#1f77b4" fill-opacity="0.6" stroke="#1f77b4" stroke-width="0.2842"/><polygon points="6,117.168 16,117.168 16,113.168 6,113.168" fill="#1f77b4" fill-opacity="0.6" stroke="#1f77b4" stroke-width="0.2842"/><polygon points="12,117.168 117.168,117.168 117.168,113.168 12,113.168" fill="#1f77b4" fill-opacity="0.6" stroke="#1f77b4" stroke-width="0.2842"/><polygon points="113.168,117.168 117.168,117.168 117.168,12 113.168,12" fill="#1f77b4" fill-opacity="0.6" stroke="#1f77b4" stroke-width="0.2842"/><polygon points="16,16 113.168,16 113.168,12 16,12" fill="#1f77b4" fill-opacity="0.6" stroke="#1f77b4" stroke-width="0.2842"/><polygon points="12,107.168 16,107.168 16,16 12,16" fill="#1f77b4" fill-opacity="0.6" stroke="#1f77b4" stroke-width="0.2842"/><polygon points="12,111.168 22,111.168 22,107.168 12,107.168" fill="#1f77b4" fill-opacity="0.6" stroke="#1f77b4" stroke-width="0.2842"/><polygon points="18,111.168 111.168,111.168 111.168,107.168 18,107.168" fill="#1f77b4" fill-opacity="0.6" stroke="#1f77b4" stroke-width="0.2842"/><polygon points="107.168,111.168 111.168,111.168 111.168,18 107.168,18" fill="#1f77b4" fill-opacity="0.6" stroke="#1f77b4" stroke-width="0.2842"/><polygon points="22,22 107.168,22 107.168,18 22,18" fill="#1f77b4" fill-opacity="0.6" stroke="#1f77b4" stroke-width="0.2842"/></svg>