<svg xmlns="http://www.w3.org/2000/svg" width="800.0" height="800.0" viewBox="-6.1849 -6.1849 136.067 136.067"><rect x="-6.1849" y="-6.1849" width="136.067" height="136.067" fill="white"/><polygon points="0,123.697 123.697,123.697 123.697,119.697 0,119.697" fill="#1f77b4" fill-opacity="0.6" stroke="#1f77b4" stroke-width="0.2721"/><polygon points="119.697,123.697 123.697,123.697 123.697,-0 119.697,-0" fill="#1f77b4" fill-opacity="0.6" stroke="#1f77b4" stroke-width="0.2721"/><polygon points="4,4 119.697,4 119.697,-0 4,-0" fill="#1f77b4" fill-opacity="0.6" stroke="#1f77b4" stroke-width="0.2721"/><polygon points="0,113.697 4,113.697 4,4 0,4" fill="#1f77b4" fill-opacity="0.6" stroke="#1f77b4" stroke-width="0.2721"/><polygon points="0,117.697 10,117.697 10,113.697 0,113.697" fill="#1f77b4" fill-opacity="0.6" stroke="#1f77b4" stroke-width="0.2721"/><polygon points="6,117.697 117.697,117.697 117.697,113.697 6,113.697" fill="#1f77b4" fill-opacity="0.6" stroke="#1f77b4" stroke-width="0.2721"/><polygon points="113.697,117.697 117.697,117.697 117.697,6 113.697,6" fill="#1f77b4" fill-opacity="0.6" stroke="#1f77b4" stroke-width="0.2721"/><polygon points="10,10 113.697,10 113.697,6 10,6" fill="#1f77b4" fill-opacity="0.6" stroke="#1f77b4" stroke-width="0.2721"/><polygon points="6,107.697 10,107.697 10,10 6,10" fill="#1f77b4" fill-opacity="0.6" stroke="#1f77b4" stroke-width="0.2721"/><polygon points="6,111.697 16,111.697 16,107.697 6,107.697" fill="#1f77b4" fill-opacity="0.6" stroke="#1f77b4" stroke-width="0.2721"/><polygon points="12,111.697 111.697,111.697 111.697,107.697 12,107.697" fill="#1f77b4" fill-opacity="0.6" stroke="#1f77b4" stroke-width="0.2721"/><polygon points="107.697,111.697 111.697,111.697 111.697,12 107.697,12" fill="#1f77b4" fill-opacity="0.6" stroke="#1f77b4" stroke-width="0.2721"/><polygon points="16,16 107.697,16 107.697,12 16,12" fill="#1f77b4" fill-opacity="0.6" stroke="#1f77b4" stroke-width="0.2721"/><polygon points="12,101.697 16,101.697 16,16 12,16" fill="#1f77b4" fill-opacity="0.6" stroke="#1f77b4" stroke-width="0.2721"/><polygon points="12,105.697 22,105.697 22,101.697 12,101.697" fill="#1f77b4" fill-opacity="0.6" stroke="#1f77b4" stroke-width="0.2721"/><polygon points="18,105.697 105.697,105.697 105.697,101.697 18,101.697" fill="#1f77b4" fill-opacity="0.6" stroke="#1f77b4" stroke-width="0.2721"/><polygon points="101.697,105.697 105.697,105.697 105.697,18 101.697,18" fill="#1f77b4" fill-opacity="0.6" stroke="#1f77b4" stroke-width="0.2721"/><polygon points="22,22 101.697,22 101.697,18 22,18" fill="#1f77b4" fill-opacity="0.6" stroke="#1f77b4" stroke-width="0.2721"/></svg>