<svg xmlns="http://www.w3.org/2000/svg" width="756.94" height="800.0" viewBox="-15.2 -15.2 316.4 334.4"><rect x="-15.2" y="-15.2" width="316.4" height="334.4" fill="white"/><polygon points="0,304 286,304 286,279 0,279" fill="#1f77b4" fill-opacity="0.6" stroke="#1f77b4" stroke-width="0.6688"/><polygon points="0,25 286,25 286,0 0,0" fill="#1f77b4" fill-opacity="0.6" stroke="#1f77b4" stroke-width="0.6688"/><polygon points="0,279 4,279 4,27 0,27" fill="#1f77b4" fill-opacity="0.6" stroke="#1f77b4" stroke-width="0.6688"/><polygon points="6,277 10,277 10,25 6,25" fill="#1f77b4" fill-opacity="0.6" stroke="#1f77b4" stroke-width="0.6688"/><polygon points="12,279 16,279 16,27 12,27" fill="#1f77b4" fill-opacity="0.6" stroke="#1f77b4" stroke-width="0.6688"/><polygon points="18,277 22,277 22,25 18,25" fill="#1f77b4" fill-opacity="0.6" stroke="#1f77b4" stroke-width="0.6688"/><polygon points="24,279 28,279 28,27 24,27" fill="#1f77b4" fill-opacity="0.6" stroke="#1f77b4" stroke-width="0.6688"/><polygon points="30,277 34,277 34,25 30,25" fill="#1f77b4" fill-opacity="0.6" stroke="#1f77b4" stroke-width="0.6688"/><polygon points="36,279 40,279 40,27 36,27" fill="#1f77b4" fill-opacity="0.6" stroke="#1f77b4" stroke-width="0.6688"/><polygon points="42,277 46,277 46,25 42,25" fill="#1f77b4" fill-opacity="0.6" stroke="#1f77b4" stroke-width="0.6688"/><polygon points="48,279 52,279 52,27 48,27" fill="#1f77b4" fill-opacity="0.6" stroke="#1f77b4" stroke-width="0.6688"/><polygon points="54,277 58,277 58,25 54,25" fill="#1f77b4" fill-opacity="0.6" stroke="#1f77b4" stroke-width="0.6688"/><polygon points="60,279 64,279 64,27 60,27" fill="#1f77b4" fill-opacity="0.6" stroke="#1f77b4" stroke-width="0.6688"/><polygon points="66,277 70,277 70,25 66,25" fill="#1f77b4" fill-opacity="0.6" stroke="#1f77b4" stroke-width="0.6688"/><polygon points="72,279 76,279 76,27 72,27" fill="#1f77b4" fill-opacity="0.6" stroke="#1f77b4" stroke-width="0.6688"/><polygon points="78,277 82,277 82,25 78,25" fill="#1f77b4" fill-opacity="0.6" stroke="#1f77b4" stroke-width="0.6688"/><polygon points="84,279 88,279 88,27 84,27" fill="#1f77b4" fill-opacity="0.6" stroke="#1f77b4" stroke-width="0.6688"/><polygon points="90,277 94,277 94,25 90,25" fill="#1f77b4" fill-opacity="0.6" stroke="#1f77b4" stroke-width="0.6688"/><polygon points="96,279 100,279 100,27 96,27" fill="#1f77b4" fill-opacity="0.6" stroke="#1f77b4" stroke-width="0.6688"/><polygon points="102,277 106,277 106,25 102,25" fill="#1f77b4" fill-opacity="0.6" stroke="#1f77b4" stroke-width="0.6688"/><polygon points="108,279 112,279 112,27 108,27" fill="#1f77b4" fill-opacity="0.6" stroke="#1f77b4" stroke-width="0.6688"/><polygon points="114,277 118,277 118,25 114,25" fill="#1f77b4" fill-opacity="0.6" stroke="#1f77b4" stroke-width="0.6688"/><polygon points="120,279 124,279 124,27 120,27" fill="#1f77b4" fill-opacity="0.6" stroke="#1f77b4" stroke-width="0.6688"/><polygon points="126,277 130,277 130,25 126,25" fill="#1f77b4" fill-opacity="0.6" stroke="#1f77b4" stroke-width="0.6688"/><polygon points="132,279 136,279 136,27 132,27" fill="#1f77b4" fill-opacity="0.6" stroke="#1f77b4" stroke-width="0.6688"/><polygon points="138,277 142,277 142,25 138,25" fill="#1f77b4" fill-opacity="0.6" stroke="#1f77b4" stroke-width="0.6688"/><polygon points="144,279 148,279 148,27 144,27" fill="#1f77b4" fill-opacity="0.6" stroke="#1f77b4" stroke-width="0.6688"/><polygon points="150,277 154,277 154,25 150,25" fill="#1f77b4" fill-opacity="0.6" stroke="#1f77b4" stroke-width="0.6688"/><polygon points="156,279 160,279 160,27 156,27" fill="#1f77b4" fill-opacity="0.6" stroke="#1f77b4" stroke-width="0.6688"/><polygon points="162,277 166,277 166,25 162,25" fill="#1f77b4" fill-opacity="0.6" stroke="#1f77b4" stroke-width="0.6688"/><polygon points="168,279 172,279 172,27 168,27" fill="#1f77b4" fill-opacity="0.6" stroke="#1f77b4" stroke-width="0.6688"/><polygon points="174,277 178,277 178,25 174,25" fill="#1f77b4" fill-opacity="0.6" stroke="#1f77b4" stroke-width="0.6688"/><polygon points="180,279 184,279 184,27 180,27" fill="#1f77b4" fill-opacity="0.6" stroke="#1f77b4" stroke-width="0.6688"/><polygon points="186,277 190,277 190,25 186,25" fill="#1f77b4" fill-opacity="0.6" stroke="#1f77b4" stroke-width="0.6688"/><polygon points="192,279 196,279 196,27 192,27" fill="#1f77b4" fill-opacity="0.6" stroke="#1f77b4" stroke-width="0.6688"/><polygon points="198,277 202,277 202,25 198,25" fill="#1f77b4" fill-opacity="0.6" stroke="#1f77b4" stroke-width="0.6688"/><polygon points="204,279 208,279 208,27 204,27" fill="#1f77b4" fill-opacity="0.6" stroke="#1f77b4" stroke-width="0.6688"/><polygon points="210,277 214,277 214,25 210,25" fill="#1f77b4" fill-opacity="0.6" stroke="#1f77b4" stroke-width="0.6688"/><polygon points="216,279 220,279 220,27 216,27" fill="#1f77b4" fill-opacity="0.6" stroke="#1f77b4" stroke-width="0.6688"/><polygon points="222,277 226,277 226,25 222,25" fill="#1f77b4" fill-opacity="0.6" stroke="#1f77b4" stroke-width="0.6688"/><polygon points="228,279 232,279 232,27 228,27" fill="#1f77b4" fill-opacity="0.6" stroke="#1f77b4" stroke-width="0.6688"/><polygon points="234,277 238,277 238,25 234,25" fill="#1f77b4" fill-opacity="0.6" stroke="#1f77b4" stroke-width="0.6688"/><polygon points="240,279 244,279 244,27 240,27" fill="#1f77b4" fill-opacity="0.6" stroke="#1f77b4" stroke-width="0.6688"/><polygon points="246,277 250,277 250,25 246,25" fill="#1f77b4" fill-opacity="0.6" stroke="#1f77b4" stroke-width="0.6688"/><polygon points="252,279 256,279 256,27 252,27" fill="#1f77b4" fill-opacity="0.6" stroke="#1f77b4" stroke-width="0.6688"/><polygon points="258,277 262,277 262,25 258,25" fill="#1f77b4" fill-opacity="0.6" stroke="#1f77b4" stroke-width="0.6688"/><polygon points="264,279 268,279 268,27 264,27" fill="#1f77b4" fill-opacity="0.6" stroke="#1f77b4" stroke-width="0.6688"/><polygon points="270,277 274,277 274,25 270,25" fill="#1f77b4" fill-opacity="0.6" stroke="#1f77b4" stroke-width="0.6688"/><polygon points="276,279 280,279 280,27 276,27" fill="#1f77b4" fill-opacity="0.6" stroke="#1f77b4" stroke-width="0.6688"/><polygon points="282,277 286,277 286,25 282,25" fill="#1f77b4" fill-opacity="0.6" stroke="#1f77b4" stroke-width="0.6688"/></svg>