<svg xmlns="http://www.w3.org/2000/svg" width="900" height="440" viewBox="0 0 900 440"><rect width="100%" height="100%" fill="white"/><text x="50" y="30" font-size="20">Mode 7: 22.979797637 GHz - UNKNOWN</text><polyline points="50.000,379.591 92.105,269.336 134.211,188.671 176.316,50.000 218.421,257.668 260.526,282.157 302.632,352.233 344.737,387.921 386.842,374.332 428.947,326.817 471.053,241.101 513.158,186.642 555.263,239.412 597.368,308.769 639.474,356.835 681.579,383.127 723.684,383.316 765.789,359.995 807.895,322.068 850.000,197.355" fill="none" stroke="#dc2626" stroke-width="3"/><polyline points="50.000,50.000 92.105,183.828 134.211,312.355 176.316,379.722 218.421,345.666 260.526,300.959 302.632,188.144 344.737,183.908 386.842,206.241 428.947,198.668 471.053,335.783 513.158,385.368 555.263,370.477 597.368,294.226 639.474,258.863 681.579,218.532 723.684,248.738 765.789,296.326 807.895,315.845 850.000,379.900" fill="none" stroke="#2563eb" stroke-width="3"/><text x="50" y="425" font-size="16" fill="#dc2626">Electric</text><text x="150" y="425" font-size="16" fill="#2563eb">Magnetic</text></svg>