<svg xmlns="http://www.w3.org/2000/svg" width="900" height="440" viewBox="0 0 900 440"><rect width="100%" height="100%" fill="white"/><text x="50" y="30" font-size="20">Mode 5: 17.026804241 GHz - SUBSTRATE_MODE</text><polyline points="50.000,50.000 92.105,130.831 134.211,184.407 176.316,279.485 218.421,322.822 260.526,371.594 302.632,387.467 344.737,367.919 386.842,327.486 428.947,266.889 471.053,192.082 513.158,131.201 555.263,77.452 597.368,83.517 639.474,67.995 681.579,144.205 723.684,203.892 765.789,283.428 807.895,334.675 850.000,377.497" fill="none" stroke="#dc2626" stroke-width="3"/><polyline points="50.000,377.157 92.105,336.308 134.211,272.674 176.316,210.304 218.421,136.641 260.526,55.379 302.632,99.745 344.737,50.000 386.842,137.228 428.947,198.693 471.053,252.272 513.158,335.191 555.263,371.780 597.368,386.509 639.474,365.652 681.579,313.095 723.684,251.598 765.789,190.215 807.895,114.199 850.000,105.798" fill="none" stroke="#2563eb" stroke-width="3"/><text x="50" y="425" font-size="16" fill="#dc2626">Electric</text><text x="150" y="425" font-size="16" fill="#2563eb">Magnetic</text></svg>