<svg xmlns="http://www.w3.org/2000/svg" width="900" height="440" viewBox="0 0 900 440"><rect width="100%" height="100%" fill="white"/><text x="50" y="30" font-size="20">Mode 4: 13.748018282 GHz - UNKNOWN</text><polyline points="50.000,385.774 92.105,342.476 134.211,298.657 176.316,204.849 218.421,286.434 260.526,161.906 302.632,238.462 344.737,102.064 386.842,187.365 428.947,280.642 471.053,256.417 513.158,336.211 555.263,379.011 597.368,387.577 639.474,363.030 681.579,331.841 723.684,260.399 765.789,234.252 807.895,224.450 850.000,50.000" fill="none" stroke="#dc2626" stroke-width="3"/><polyline points="50.000,50.000 92.105,139.456 134.211,226.112 176.316,313.599 218.421,319.183 260.526,351.472 302.632,384.666 344.737,386.724 386.842,360.859 428.947,303.455 471.053,210.068 513.158,147.673 555.263,107.967 597.368,72.721 639.474,124.793 681.579,175.321 723.684,263.051 765.789,323.304 807.895,341.286 850.000,383.981" fill="none" stroke="#2563eb" stroke-width="3"/><text x="50" y="425" font-size="16" fill="#dc2626">Electric</text><text x="150" y="425" font-size="16" fill="#2563eb">Magnetic</text></svg>