<svg xmlns="http://www.w3.org/2000/svg" width="900" height="440" viewBox="0 0 900 440"><rect width="100%" height="100%" fill="white"/><text x="50" y="30" font-size="20">Mode 6: 20.116648454 GHz - UNKNOWN</text><polyline points="50.000,375.276 92.105,291.881 134.211,200.665 176.316,72.039 218.421,162.794 260.526,87.505 302.632,190.948 344.737,184.415 386.842,285.139 428.947,366.544 471.053,382.767 513.158,355.932 555.263,291.716 597.368,241.227 639.474,116.937 681.579,94.204 723.684,50.000 765.789,108.902 807.895,234.726 850.000,260.364" fill="none" stroke="#dc2626" stroke-width="3"/><polyline points="50.000,50.000 92.105,175.628 134.211,263.205 176.316,342.813 218.421,380.585 260.526,385.335 302.632,347.816 344.737,311.735 386.842,239.503 428.947,149.067 471.053,98.099 513.158,125.385 555.263,205.431 597.368,276.877 639.474,332.907 681.579,383.362 723.684,380.908 765.789,339.851 807.895,258.762 850.000,178.897" fill="none" stroke="#2563eb" stroke-width="3"/><text x="50" y="425" font-size="16" fill="#dc2626">Electric</text><text x="150" y="425" font-size="16" fill="#2563eb">Magnetic</text></svg>