<svg xmlns="http://www.w3.org/2000/svg" width="900" height="440" viewBox="0 0 900 440"><rect width="100%" height="100%" fill="white"/><text x="50" y="30" font-size="20">Mode 2: 5.684244414 GHz - SUBSTRATE_MODE</text><polyline points="50.000,50.000 92.105,94.240 134.211,91.795 176.316,141.611 218.421,131.967 260.526,143.723 302.632,163.134 344.737,145.515 386.842,194.570 428.947,230.470 471.053,225.751 513.158,252.877 555.263,268.559 597.368,302.068 639.474,305.477 681.579,327.407 723.684,333.800 765.789,348.501 807.895,360.962 850.000,346.264" fill="none" stroke="#dc2626" stroke-width="3"/><polyline points="50.000,343.914 92.105,346.873 134.211,345.400 176.316,344.441 218.421,307.055 260.526,289.114 302.632,283.865 344.737,243.699 386.842,239.746 428.947,208.953 471.053,175.559 513.158,178.262 555.263,133.415 597.368,133.145 639.474,85.598 681.579,78.952 723.684,71.170 765.789,79.924 807.895,50.000 850.000,80.310" fill="none" stroke="#2563eb" stroke-width="3"/><text x="50" y="425" font-size="16" fill="#dc2626">Electric</text><text x="150" y="425" font-size="16" fill="#2563eb">Magnetic</text></svg>