<svg xmlns="http://www.w3.org/2000/svg" width="900" height="440" viewBox="0 0 900 440"><rect width="100%" height="100%" fill="white"/><text x="50" y="30" font-size="20">Mode 3: 9.954098955 GHz - HALF_WAVE_RESONATOR</text><polyline points="50.000,386.702 92.105,366.966 134.211,341.546 176.316,293.762 218.421,305.166 260.526,208.708 302.632,231.894 344.737,94.466 386.842,114.062 428.947,131.028 471.053,50.000 513.158,62.846 555.263,119.015 597.368,188.918 639.474,193.436 681.579,243.924 723.684,264.611 765.789,304.718 807.895,349.702 850.000,360.890" fill="none" stroke="#dc2626" stroke-width="3"/><polyline points="50.000,50.000 92.105,141.275 134.211,176.531 176.316,237.978 218.421,197.558 260.526,243.418 302.632,290.714 344.737,323.710 386.842,362.694 428.947,377.207 471.053,388.349 513.158,384.712 555.263,369.369 597.368,343.645 639.474,314.709 681.579,283.017 723.684,253.807 765.789,237.088 807.895,164.463 850.000,157.237" fill="none" stroke="#2563eb" stroke-width="3"/><text x="50" y="425" font-size="16" fill="#dc2626">Electric</text><text x="150" y="425" font-size="16" fill="#2563eb">Magnetic</text></svg>