<svg xmlns="http://www.w3.org/2000/svg" width="900" height="440" viewBox="0 0 900 440"><rect width="100%" height="100%" fill="white"/><text x="50" y="30" font-size="20">Mode 8: 28.207876964 GHz - SUBSTRATE_MODE</text><polyline points="50.000,66.099 92.105,203.574 134.211,308.650 176.316,381.830 218.421,368.703 260.526,269.453 302.632,169.683 344.737,50.000 386.842,99.201 428.947,206.434 471.053,290.199 513.158,378.115 555.263,376.873 597.368,297.250 639.474,168.707 681.579,89.934 723.684,82.274 765.789,159.409 807.895,253.308 850.000,359.850" fill="none" stroke="#dc2626" stroke-width="3"/><polyline points="50.000,356.867 92.105,252.125 134.211,127.941 176.316,75.318 218.421,77.385 260.526,144.524 302.632,301.276 344.737,373.870 386.842,365.173 428.947,273.540 471.053,143.699 513.158,87.357 555.263,50.000 597.368,158.114 639.474,260.232 681.579,368.857 723.684,379.281 765.789,306.454 807.895,179.203 850.000,107.252" fill="none" stroke="#2563eb" stroke-width="3"/><text x="50" y="425" font-size="16" fill="#dc2626">Electric</text><text x="150" y="425" font-size="16" fill="#2563eb">Magnetic</text></svg>