<svg xmlns="http://www.w3.org/2000/svg" width="900" height="440" viewBox="0 0 900 440"><rect width="100%" height="100%" fill="white"/><text x="50" y="30" font-size="20">Mode 1: 5.007997027 GHz - QUARTER_WAVE_RESONATOR</text><polyline points="50.000,377.767 92.105,373.412 134.211,366.800 176.316,353.008 218.421,362.213 260.526,328.192 302.632,341.275 344.737,270.404 386.842,282.546 428.947,291.217 471.053,224.311 513.158,200.484 555.263,217.080 597.368,253.461 639.474,194.113 681.579,198.281 723.684,146.100 765.789,165.658 807.895,203.606 850.000,50.000" fill="none" stroke="#dc2626" stroke-width="3"/><polyline points="50.000,50.000 92.105,114.106 134.211,168.909 176.316,244.054 218.421,95.919 260.526,135.285 302.632,159.784 344.737,188.787 386.842,229.183 428.947,200.121 471.053,236.008 513.158,259.431 555.263,285.435 597.368,300.460 639.474,320.772 681.579,339.837 723.684,358.264 765.789,369.497 807.895,371.322 850.000,378.949" fill="none" stroke="#2563eb" stroke-width="3"/><text x="50" y="425" font-size="16" fill="#dc2626">Electric</text><text x="150" y="425" font-size="16" fill="#2563eb">Magnetic</text></svg>