<svg xmlns="http://www.w3.org/2000/svg" width="145.59" height="800.0" viewBox="-499.523 -249.523 999.047 5489.51"><rect x="-499.523" y="-249.523" width="999.047" height="5489.51" fill="white"/><polygon points="-5,4990.47 5,4990.47 5,72 -5,72" fill="#1f77b4" fill-opacity="0.6" stroke="#1f77b4" stroke-width="10.979"/><polygon points="-61,4990.47 -11,4990.47 -11,72 -61,72" fill="#1f77b4" fill-opacity="0.6" stroke="#1f77b4" stroke-width="10.979"/><polygon points="11,4990.47 61,4990.47 61,72 11,72" fill="#1f77b4" fill-opacity="0.6" stroke="#1f77b4" stroke-width="10.979"/><polygon points="-11,4990.47 11,4990.47 11,4980.47 -11,4980.47" fill="#1f77b4" fill-opacity="0.6" stroke="#1f77b4" stroke-width="10.979"/><polygon points="-250,66 250,66 250,56 -250,56" fill="#1f77b4" fill-opacity="0.6" stroke="#1f77b4" stroke-width="10.979"/><polygon points="-250,50 250,50 250,0 -250,0" fill="#1f77b4" fill-opacity="0.6" stroke="#1f77b4" stroke-width="10.979"/><polygon points="-250,122 -11,122 -11,72 -250,72" fill="#1f77b4" fill-opacity="0.6" stroke="#1f77b4" stroke-width="10.979"/><polygon points="11,122 250,122 250,72 11,72" fill="#1f77b4" fill-opacity="0.6" stroke="#1f77b4" stroke-width="10.979"/></svg>