<svg xmlns="http://www.w3.org/2000/svg" viewBox="-750 -40 1500 5068.47"><rect x="-750" y="-40" width="1500" height="5068.47" fill="white"/><polygon points="-5,4988.47 5,4988.47 5,70 -5,70" fill="#6b7280" fill-opacity="0.45" stroke="#111827" stroke-width="1"/><polygon points="-61,4988.47 -11,4988.47 -11,70 -61,70" fill="#6b7280" fill-opacity="0.45" stroke="#111827" stroke-width="1"/><polygon points="11,4988.47 61,4988.47 61,70 11,70" fill="#6b7280" fill-opacity="0.45" stroke="#111827" stroke-width="1"/><polygon points="-11,4988.47 11,4988.47 11,4978.47 -11,4978.47" fill="#6b7280" fill-opacity="0.45" stroke="#111827" stroke-width="1"/><polygon points="-250,66 250,66 250,56 -250,56" fill="#6b7280" fill-opacity="0.45" stroke="#111827" stroke-width="1"/><polygon points="-250,50 250,50 250,0 -250,0" fill="#6b7280" fill-opacity="0.45" stroke="#111827" stroke-width="1"/><polygon points="-250,122 -11,122 -11,72 -250,72" fill="#6b7280" fill-opacity="0.45" stroke="#111827" stroke-width="1"/><polygon points="11,122 250,122 250,72 11,72" fill="#6b7280" fill-opacity="0.45" stroke="#111827" stroke-width="1"/><line x1="0" y1="4988.47" x2="0" y2="70" stroke="#2563eb" stroke-width="3"/><circle cx="0" cy="4865.5" r="3" fill="#0ea5e9"/><circle cx="0" cy="4619.58" r="3" fill="#0ea5e9"/><circle cx="0" cy="4373.66" r="3" fill="#0ea5e9"/><circle cx="0" cy="4127.73" r="3" fill="#0ea5e9"/><circle cx="0" cy="3881.81" r="3" fill="#0ea5e9"/><circle cx="0" cy="3635.89" r="3" fill="#0ea5e9"/><circle cx="0" cy="3389.96" r="3" fill="#0ea5e9"/><circle cx="0" cy="3144.04" r="3" fill="#0ea5e9"/><circle cx="0" cy="2898.12" r="3" fill="#0ea5e9"/><circle cx="0" cy="2652.19" r="3" fill="#0ea5e9"/><circle cx="0" cy="2406.27" r="3" fill="#0ea5e9"/><circle cx="0" cy="2160.35" r="3" fill="#0ea5e9"/><circle cx="0" cy="1914.42" r="3" fill="#0ea5e9"/><circle cx="0" cy="1668.5" r="3" fill="#0ea5e9"/><circle cx="0" cy="1422.58" r="3" fill="#0ea5e9"/><circle cx="0" cy="1176.65" r="3" fill="#0ea5e9"/><circle cx="0" cy="930.731" r="3" fill="#0ea5e9"/><circle cx="0" cy="684.808" r="3" fill="#0ea5e9"/><circle cx="0" cy="438.885" r="3" fill="#0ea5e9"/><circle cx="0" cy="192.962" r="3" fill="#0ea5e9"/><circle cx="0" cy="4988.47" r="10" fill="#16a34a"/><text x="15" y="4988.47" font-size="24" fill="#16a34a">GROUNDED</text><circle cx="0" cy="70" r="10" fill="#dc2626"/><text x="15" y="70" font-size="24" fill="#dc2626">OPEN</text><rect x="-250" y="0" width="500" height="4988.47" fill="none" stroke="#7c3aed" stroke-width="2" stroke-dasharray="10 8"/><text x="270" y="30" font-size="20" fill="#111827">PEC: 10,11,12</text><text x="270" y="60" font-size="20" fill="#111827">SUBSTRATE: 1,2</text><text x="270" y="90" font-size="20" fill="#111827">VACUUM: 3,4,5</text><text x="270" y="120" font-size="20" fill="#111827">CRITICAL: CPW gaps, coupling gap, endpoints, interface</text></svg>